<svg width="1200" height="720" viewBox="0 0 1200 720" fill="none" xmlns="http://www.w3.org/2000/svg">
  <defs>
    <linearGradient id="grad3" x1="0" y1="0" x2="1" y2="1">
      <stop offset="0%" stop-color="#22c55e" stop-opacity="0.9" />
      <stop offset="100%" stop-color="#14b8a6" stop-opacity="0.8" />
    </linearGradient>
    <radialGradient id="glow3" cx="0" cy="0" r="1" gradientUnits="userSpaceOnUse" gradientTransform="translate(320 160) rotate(45) scale(460 320)">
      <stop offset="0%" stop-color="#22c55e" stop-opacity="0.6" />
      <stop offset="100%" stop-color="#0b1020" stop-opacity="0" />
    </radialGradient>
  </defs>
  <rect width="1200" height="720" rx="36" fill="#0b1020" />
  <rect x="120" y="120" width="960" height="480" rx="28" fill="url(#grad3)" opacity="0.25" />
  <rect x="180" y="170" width="420" height="64" rx="16" fill="url(#grad3)" opacity="0.7" />
  <rect x="180" y="260" width="520" height="24" rx="12" fill="#FFFFFF" opacity="0.18" />
  <rect x="180" y="300" width="460" height="24" rx="12" fill="#FFFFFF" opacity="0.18" />
  <rect x="180" y="340" width="400" height="24" rx="12" fill="#FFFFFF" opacity="0.18" />
  <rect x="720" y="190" width="300" height="180" rx="20" fill="#0b1020" opacity="0.7" />
  <rect x="750" y="230" width="240" height="20" rx="10" fill="#FFFFFF" opacity="0.2" />
  <rect x="750" y="265" width="220" height="20" rx="10" fill="#FFFFFF" opacity="0.2" />
  <rect x="720" y="400" width="300" height="140" rx="20" fill="#0b1020" opacity="0.65" />
  <rect x="750" y="430" width="210" height="16" rx="8" fill="#FFFFFF" opacity="0.2" />
  <rect x="750" y="460" width="240" height="16" rx="8" fill="#FFFFFF" opacity="0.2" />
  <circle cx="980" cy="520" r="46" fill="url(#grad3)" opacity="0.85" />
  <rect width="1200" height="720" rx="36" fill="url(#glow3)" />
</svg>
